<svg width="24" height="17" viewBox="0 0 24 17" fill="none" xmlns="http://www.w3.org/2000/svg">
<path d="M12.0044 15.7498C12.8181 15.7498 13.5997 15.6825 14.3491 15.5479C15.0984 15.4132 15.8127 15.2288 16.4918 14.9946L15.3414 13.8442C14.8204 14.0023 14.2818 14.1281 13.7256 14.2218C13.1694 14.3155 12.5957 14.3623 12.0044 14.3623C11.0384 14.3623 10.1105 14.2423 9.22066 14.0023C8.33077 13.7623 7.49651 13.4447 6.7179 13.0495C5.93927 12.6544 5.23381 12.2226 4.60154 11.7542C3.96927 11.2859 3.42335 10.8219 2.96378 10.3623C2.50421 9.90275 2.15149 9.48271 1.9056 9.10218C1.65972 8.72166 1.53677 8.42893 1.53677 8.22401C1.53677 8.07179 1.63484 7.84056 1.83096 7.53033C2.02708 7.22002 2.30809 6.86582 2.67399 6.46772C3.03989 6.06962 3.48189 5.65689 4 5.22952C4.51812 4.80215 5.10209 4.39527 5.75193 4.00888L4.66302 2.91997C3.93122 3.37075 3.27699 3.84935 2.70034 4.35575C2.12368 4.86216 1.63484 5.36124 1.23381 5.85301C0.832784 6.34478 0.526894 6.79703 0.316137 7.20976C0.105379 7.6225 0 7.96058 0 8.22401C0 8.5226 0.133187 8.9134 0.399561 9.39638C0.665938 9.87937 1.05086 10.4033 1.55434 10.9682C2.05781 11.5332 2.66374 12.0967 3.37212 12.6587C4.0805 13.2207 4.88109 13.7345 5.77388 14.1999C6.66668 14.6653 7.63558 15.04 8.68059 15.3239C9.7256 15.6079 10.8335 15.7498 12.0044 15.7498ZM12.0044 0.698228C11.2375 0.698228 10.5072 0.759699 9.8134 0.882642C9.11964 1.00558 8.44784 1.17536 7.798 1.39197L8.95718 2.54236C9.44312 2.40185 9.93635 2.29062 10.4369 2.20866C10.9374 2.1267 11.4599 2.08572 12.0044 2.08572C12.9645 2.08572 13.8895 2.21012 14.7794 2.45893C15.6693 2.70774 16.5035 3.03559 17.2821 3.44247C18.0608 3.84935 18.7662 4.28989 19.3985 4.7641C20.0307 5.2383 20.5752 5.70812 21.0319 6.17354C21.4885 6.63896 21.8412 7.05316 22.09 7.41613C22.3389 7.77912 22.4633 8.04841 22.4633 8.22401C22.4633 8.4055 22.3711 8.64992 22.1866 8.95726C22.0022 9.26465 21.7359 9.61008 21.3875 9.99355C21.0392 10.377 20.6221 10.7707 20.1361 11.1746C19.6502 11.5786 19.1028 11.9679 18.494 12.3426L19.5741 13.4227C20.2649 12.9719 20.884 12.4977 21.4314 12.0001C21.9788 11.5025 22.4428 11.0151 22.8233 10.538C23.2039 10.0608 23.4951 9.62029 23.697 9.21639C23.899 8.81243 24 8.48164 24 8.22401C24 7.92546 23.8683 7.53469 23.6049 7.05169C23.3414 6.56871 22.9609 6.04474 22.4633 5.47979C21.9657 4.91485 21.3641 4.35137 20.6587 3.78934C19.9532 3.22732 19.1555 2.7136 18.2657 2.24817C17.3758 1.78275 16.4055 1.40807 15.3546 1.12413C14.3037 0.840196 13.187 0.698228 12.0044 0.698228ZM12.0044 13.1417C12.3908 13.1417 12.764 13.0963 13.1241 13.0056C13.4841 12.9149 13.8281 12.7905 14.1559 12.6323L7.56974 6.0462C7.4058 6.37405 7.27992 6.72092 7.19211 7.08682C7.10429 7.45273 7.06039 7.83179 7.06039 8.22401C7.06624 8.89144 7.19503 9.52225 7.44677 10.1164C7.69851 10.7107 8.04978 11.2347 8.5006 11.6884C8.95136 12.1421 9.47532 12.4977 10.0725 12.7553C10.6696 13.0129 11.3136 13.1417 12.0044 13.1417ZM16.5093 10.1472C16.644 9.85447 16.7479 9.54566 16.8211 9.22073C16.8943 8.89581 16.9309 8.56357 16.9309 8.22401C16.9309 7.53906 16.8036 6.89802 16.5489 6.30087C16.2942 5.70373 15.9415 5.18122 15.4907 4.73336C15.0399 4.2855 14.5159 3.9357 13.9188 3.68396C13.3216 3.43222 12.6835 3.30635 12.0044 3.30635C11.659 3.30635 11.3238 3.34148 10.9989 3.41173C10.674 3.48198 10.3652 3.58151 10.0725 3.71031L16.5093 10.1472Z" fill="#8E8E93"/>
<path d="M18.8365 15.8289C18.9711 15.9635 19.1306 16.0338 19.3151 16.0396C19.4995 16.0455 19.659 15.9752 19.7937 15.8289C19.94 15.6825 20.0103 15.5201 20.0044 15.3415C19.9986 15.163 19.9283 15.0063 19.7937 14.8717L5.11087 0.197679C4.98208 0.0688825 4.82255 0.00302061 4.63228 9.34209e-05C4.44201 -0.00283377 4.27955 0.0630281 4.1449 0.197679C4.01611 0.326475 3.95171 0.486007 3.95171 0.676274C3.95171 0.866543 4.01611 1.02607 4.1449 1.15487L18.8365 15.8289Z" fill="#8E8E93"/>
</svg>
