<svg width="24" height="16" viewBox="0 0 24 16" fill="none" xmlns="http://www.w3.org/2000/svg">
<path d="M12.0044 15.5258C13.187 15.5258 14.3037 15.3838 15.3546 15.0999C16.4054 14.8159 17.3758 14.4413 18.2656 13.9758C19.1555 13.5104 19.9532 12.9967 20.6586 12.4347C21.3641 11.8727 21.9656 11.3092 22.4632 10.7442C22.9609 10.1793 23.3414 9.65534 23.6048 9.17234C23.8683 8.68935 24 8.29855 24 7.99996C24 7.7014 23.8683 7.31063 23.6048 6.82764C23.3414 6.34465 22.9609 5.82069 22.4632 5.25575C21.9656 4.6908 21.3641 4.12731 20.6586 3.56529C19.9532 3.00327 19.1541 2.48955 18.2612 2.02413C17.3684 1.55871 16.3966 1.18403 15.3458 0.900088C14.2949 0.616151 13.1811 0.474182 12.0044 0.474182C10.8394 0.474182 9.73437 0.616151 8.68939 0.900088C7.64436 1.18403 6.67545 1.55871 5.78266 2.02413C4.88987 2.48955 4.08782 3.00327 3.37651 3.56529C2.6652 4.12731 2.05781 4.6908 1.55433 5.25575C1.05086 5.82069 0.665935 6.34465 0.399561 6.82764C0.133187 7.31063 0 7.7014 0 7.99996C0 8.29855 0.133187 8.68935 0.399561 9.17234C0.665935 9.65534 1.05086 10.1793 1.55433 10.7442C2.05781 11.3092 2.66374 11.8727 3.37212 12.4347C4.0805 12.9967 4.88108 13.5104 5.77388 13.9758C6.66667 14.4413 7.63558 14.8159 8.68061 15.0999C9.72559 15.3838 10.8335 15.5258 12.0044 15.5258ZM12.0044 14.1383C11.0384 14.1383 10.1105 14.0183 9.22065 13.7783C8.33077 13.5382 7.49652 13.2206 6.7179 12.8255C5.93926 12.4303 5.23381 11.9985 4.60154 11.5302C3.96926 11.0618 3.42334 10.5979 2.96378 10.1383C2.50421 9.67872 2.15148 9.25867 1.9056 8.87811C1.65972 8.4976 1.53677 8.20489 1.53677 7.99996C1.53677 7.82433 1.65972 7.55504 1.9056 7.19208C2.15148 6.82911 2.50421 6.41491 2.96378 5.94949C3.42334 5.48406 3.96926 5.01425 4.60154 4.54004C5.23381 4.06584 5.93926 3.6253 6.7179 3.21842C7.49652 2.81154 8.33077 2.4837 9.22065 2.23489C10.1105 1.98608 11.0384 1.86167 12.0044 1.86167C12.9645 1.86167 13.8881 1.98608 14.775 2.23489C15.6619 2.4837 16.4947 2.81154 17.2733 3.21842C18.052 3.6253 18.7589 4.06584 19.3941 4.54004C20.0293 5.01425 20.5752 5.48406 21.0318 5.94949C21.4885 6.41491 21.8412 6.82911 22.09 7.19208C22.3388 7.55504 22.4632 7.82433 22.4632 7.99996C22.4632 8.20489 22.3388 8.4976 22.09 8.87811C21.8412 9.25867 21.4885 9.67872 21.0318 10.1383C20.5752 10.5979 20.0293 11.0618 19.3941 11.5302C18.7589 11.9985 18.052 12.4303 17.2733 12.8255C16.4947 13.2206 15.6619 13.5382 14.775 13.7783C13.8881 14.0183 12.9645 14.1383 12.0044 14.1383ZM12.0044 12.9177C12.6835 12.9177 13.3216 12.7889 13.9187 12.5313C14.5159 12.2737 15.0399 11.918 15.4907 11.4643C15.9414 11.0106 16.2942 10.4866 16.5489 9.89237C16.8036 9.29816 16.9309 8.66736 16.9309 7.99996C16.9309 7.31501 16.8036 6.67396 16.5489 6.07682C16.2942 5.47967 15.9414 4.95717 15.4907 4.50931C15.0399 4.06145 14.5159 3.71165 13.9187 3.45992C13.3216 3.20818 12.6835 3.08231 12.0044 3.08231C11.3136 3.08231 10.6696 3.20818 10.0725 3.45992C9.47529 3.71165 8.95131 4.06145 8.50055 4.50931C8.04978 4.95717 7.69707 5.47967 7.4424 6.07682C7.18772 6.67396 7.06037 7.31501 7.06037 7.99996C7.06623 8.66736 7.1965 9.29816 7.45118 9.89237C7.70584 10.4866 8.05856 11.0106 8.50933 11.4643C8.96014 11.918 9.48265 12.2737 10.0769 12.5313C10.6711 12.7889 11.3136 12.9177 12.0044 12.9177ZM12.0044 9.63332C11.5478 9.63332 11.1585 9.47235 10.8365 9.1504C10.5145 8.8284 10.3535 8.44492 10.3535 7.99996C10.3535 7.54919 10.5145 7.16427 10.8365 6.84521C11.1585 6.52614 11.5478 6.36661 12.0044 6.36661C12.4552 6.36661 12.8416 6.52614 13.1635 6.84521C13.4855 7.16427 13.6465 7.54919 13.6465 7.99996C13.6465 8.44492 13.4855 8.8284 13.1635 9.1504C12.8416 9.47235 12.4552 9.63332 12.0044 9.63332Z" fill="#8E8E93"/>
</svg>
